<mxfile host="app.diagrams.net" modified="2023-05-19T02:38:28.052Z" agent="Mozilla/5.0 (Windows NT 10.0; Win64; x64) AppleWebKit/537.36 (KHTML, like Gecko) Chrome/113.0.0.0 Safari/537.36" etag="5D61JX9K0FyjQCRFItp3" version="21.3.2" type="device">
  <diagram id="6a731a19-8d31-9384-78a2-239565b7b9f0" name="Page-1">
    <mxGraphModel dx="7374" dy="3451" grid="1" gridSize="10" guides="1" tooltips="1" connect="1" arrows="1" fold="1" page="1" pageScale="1" pageWidth="1169" pageHeight="827" background="none" math="0" shadow="0">
      <root>
        <mxCell id="0" />
        <mxCell id="1" parent="0" />
        <mxCell id="kG1Z84SjeEAYpl0R3kHJ-1874" style="edgeStyle=orthogonalEdgeStyle;rounded=0;orthogonalLoop=1;jettySize=auto;html=1;endArrow=none;endFill=0;" parent="1" source="1749" edge="1">
          <mxGeometry relative="1" as="geometry">
            <mxPoint x="585" y="310" as="targetPoint" />
          </mxGeometry>
        </mxCell>
        <mxCell id="1749" value="&lt;font style=&quot;font-size: 47px;&quot;&gt;함안 문화관광 사이트&lt;br&gt;https://haman.go.kr&lt;br&gt;(index.jsp)&lt;br&gt;&lt;/font&gt;" style="rounded=1;whiteSpace=wrap;html=1;shadow=0;labelBackgroundColor=none;strokeWidth=3;fontFamily=Helvetica;fontSize=20;align=center;fontStyle=1;spacing=5;arcSize=7;perimeterSpacing=2;fillColor=#f8cecc;strokeColor=#b85450;" parent="1" vertex="1">
          <mxGeometry x="-30" y="-70" width="1230" height="200" as="geometry" />
        </mxCell>
        <mxCell id="kG1Z84SjeEAYpl0R3kHJ-1832" style="edgeStyle=orthogonalEdgeStyle;rounded=0;orthogonalLoop=1;jettySize=auto;html=1;exitX=0.5;exitY=1;exitDx=0;exitDy=0;endArrow=none;endFill=0;" parent="1" source="1771" target="1778" edge="1">
          <mxGeometry relative="1" as="geometry" />
        </mxCell>
        <mxCell id="kG1Z84SjeEAYpl0R3kHJ-1833" style="edgeStyle=orthogonalEdgeStyle;rounded=0;orthogonalLoop=1;jettySize=auto;html=1;exitX=0.5;exitY=1;exitDx=0;exitDy=0;entryX=0.5;entryY=0;entryDx=0;entryDy=0;endArrow=none;endFill=0;" parent="1" source="1771" target="1776" edge="1">
          <mxGeometry relative="1" as="geometry" />
        </mxCell>
        <mxCell id="kG1Z84SjeEAYpl0R3kHJ-1869" style="edgeStyle=orthogonalEdgeStyle;rounded=0;orthogonalLoop=1;jettySize=auto;html=1;exitX=1;exitY=0.5;exitDx=0;exitDy=0;entryX=0;entryY=0.5;entryDx=0;entryDy=0;endArrow=none;endFill=0;" parent="1" source="1771" target="kG1Z84SjeEAYpl0R3kHJ-1795" edge="1">
          <mxGeometry relative="1" as="geometry" />
        </mxCell>
        <mxCell id="1771" value="공지사항&lt;br&gt;notice.jsp" style="rounded=1;whiteSpace=wrap;html=1;shadow=0;labelBackgroundColor=none;strokeWidth=3;fontFamily=Helvetica;fontSize=30;align=center;spacing=5;fontStyle=1;arcSize=7;perimeterSpacing=2;aspect=fixed;fillColor=#cce5ff;strokeColor=#36393d;" parent="1" vertex="1">
          <mxGeometry x="-1000" y="260" width="290" height="100" as="geometry" />
        </mxCell>
        <mxCell id="kG1Z84SjeEAYpl0R3kHJ-1810" style="edgeStyle=orthogonalEdgeStyle;rounded=0;orthogonalLoop=1;jettySize=auto;html=1;exitX=0.5;exitY=1;exitDx=0;exitDy=0;endArrow=none;endFill=0;" parent="1" source="1776" target="kG1Z84SjeEAYpl0R3kHJ-1804" edge="1">
          <mxGeometry relative="1" as="geometry" />
        </mxCell>
        <mxCell id="1776" value="고객민원&lt;br&gt;notice/compain.jsp" style="rounded=1;whiteSpace=wrap;html=1;shadow=0;labelBackgroundColor=none;strokeWidth=3;fontFamily=Helvetica;fontSize=30;align=center;spacing=5;fontStyle=0;arcSize=7;perimeterSpacing=2;aspect=fixed;" parent="1" vertex="1">
          <mxGeometry x="-844.8600000000001" y="416.25" width="289.86" height="100" as="geometry" />
        </mxCell>
        <mxCell id="kG1Z84SjeEAYpl0R3kHJ-1809" style="edgeStyle=orthogonalEdgeStyle;rounded=0;orthogonalLoop=1;jettySize=auto;html=1;exitX=0.5;exitY=1;exitDx=0;exitDy=0;entryX=0.5;entryY=0;entryDx=0;entryDy=0;endArrow=none;endFill=0;" parent="1" source="1778" target="kG1Z84SjeEAYpl0R3kHJ-1788" edge="1">
          <mxGeometry relative="1" as="geometry" />
        </mxCell>
        <mxCell id="1778" value="함안소식&lt;br&gt;notice/news.jsp" style="rounded=1;whiteSpace=wrap;html=1;shadow=0;labelBackgroundColor=none;strokeWidth=3;fontFamily=Helvetica;fontSize=30;align=center;spacing=5;fontStyle=0;arcSize=7;perimeterSpacing=2;aspect=fixed;" parent="1" vertex="1">
          <mxGeometry x="-1160" y="416.25" width="289.86" height="100" as="geometry" />
        </mxCell>
        <mxCell id="kG1Z84SjeEAYpl0R3kHJ-1785" value="&lt;font style=&quot;font-size: 29px;&quot;&gt;함안소식 글 상세보기&lt;br&gt;notice/newsDetail.jsp&lt;br&gt;&lt;/font&gt;" style="rounded=1;whiteSpace=wrap;html=1;shadow=0;labelBackgroundColor=none;strokeWidth=3;fontFamily=Helvetica;fontSize=30;align=center;spacing=5;fontStyle=0;arcSize=7;perimeterSpacing=2;aspect=fixed;" parent="1" vertex="1">
          <mxGeometry x="-1160" y="676.25" width="289.86" height="100" as="geometry" />
        </mxCell>
        <mxCell id="kG1Z84SjeEAYpl0R3kHJ-1786" value="&lt;font style=&quot;&quot;&gt;&lt;span style=&quot;font-size: 29px;&quot;&gt;함안소식 글 수정&lt;/span&gt;&lt;br&gt;&lt;font style=&quot;font-size: 28px;&quot;&gt;notice/newsUpdate.jsp&lt;/font&gt;&lt;br&gt;&lt;/font&gt;" style="rounded=1;whiteSpace=wrap;html=1;shadow=0;labelBackgroundColor=none;strokeWidth=3;fontFamily=Helvetica;fontSize=30;align=center;spacing=5;fontStyle=0;arcSize=7;perimeterSpacing=2;aspect=fixed;" parent="1" vertex="1">
          <mxGeometry x="-1160" y="936.75" width="289.86" height="100" as="geometry" />
        </mxCell>
        <mxCell id="kG1Z84SjeEAYpl0R3kHJ-1787" value="&lt;font style=&quot;font-size: 29px;&quot;&gt;함안소식 글 목록&lt;br&gt;notice/newsList.jsp&lt;br&gt;&lt;/font&gt;" style="rounded=1;whiteSpace=wrap;html=1;shadow=0;labelBackgroundColor=none;strokeWidth=3;fontFamily=Helvetica;fontSize=30;align=center;spacing=5;fontStyle=0;arcSize=7;perimeterSpacing=2;aspect=fixed;" parent="1" vertex="1">
          <mxGeometry x="-1160" y="546.25" width="289.86" height="100" as="geometry" />
        </mxCell>
        <mxCell id="kG1Z84SjeEAYpl0R3kHJ-1788" value="&lt;font style=&quot;font-size: 29px;&quot;&gt;함안소식 글 삭제&lt;br&gt;notice/newsDel.jsp&lt;br&gt;&lt;/font&gt;" style="rounded=1;whiteSpace=wrap;html=1;shadow=0;labelBackgroundColor=none;strokeWidth=3;fontFamily=Helvetica;fontSize=30;align=center;spacing=5;fontStyle=0;arcSize=7;perimeterSpacing=2;aspect=fixed;" parent="1" vertex="1">
          <mxGeometry x="-1160" y="1066.25" width="289.86" height="100" as="geometry" />
        </mxCell>
        <mxCell id="kG1Z84SjeEAYpl0R3kHJ-1789" value="&lt;font style=&quot;font-size: 29px;&quot;&gt;함안소식 글쓰기&lt;br&gt;notice/newsAdd.jsp&lt;br&gt;&lt;/font&gt;" style="rounded=1;whiteSpace=wrap;html=1;shadow=0;labelBackgroundColor=none;strokeWidth=3;fontFamily=Helvetica;fontSize=30;align=center;spacing=5;fontStyle=0;arcSize=7;perimeterSpacing=2;aspect=fixed;" parent="1" vertex="1">
          <mxGeometry x="-1160" y="806.75" width="289.86" height="100" as="geometry" />
        </mxCell>
        <mxCell id="kG1Z84SjeEAYpl0R3kHJ-1790" value="&lt;font style=&quot;&quot;&gt;&lt;span style=&quot;font-size: 27px;&quot;&gt;고객 민원 상세보기&lt;/span&gt;&lt;br&gt;&lt;font style=&quot;font-size: 25px;&quot;&gt;notice/compainDetail.jsp&lt;/font&gt;&lt;br&gt;&lt;/font&gt;" style="rounded=1;whiteSpace=wrap;html=1;shadow=0;labelBackgroundColor=none;strokeWidth=3;fontFamily=Helvetica;fontSize=30;align=center;spacing=5;fontStyle=0;arcSize=7;perimeterSpacing=2;aspect=fixed;" parent="1" vertex="1">
          <mxGeometry x="-844.8600000000001" y="676.25" width="289.86" height="100" as="geometry" />
        </mxCell>
        <mxCell id="kG1Z84SjeEAYpl0R3kHJ-1791" value="&lt;font style=&quot;&quot;&gt;&lt;span style=&quot;font-size: 29px;&quot;&gt;고객 민원 글 수정&lt;/span&gt;&lt;br&gt;&lt;font style=&quot;font-size: 24px;&quot;&gt;notice/compainUpdate.jsp&lt;/font&gt;&lt;br&gt;&lt;/font&gt;" style="rounded=1;whiteSpace=wrap;html=1;shadow=0;labelBackgroundColor=none;strokeWidth=3;fontFamily=Helvetica;fontSize=30;align=center;spacing=5;fontStyle=0;arcSize=7;perimeterSpacing=2;aspect=fixed;" parent="1" vertex="1">
          <mxGeometry x="-844.8600000000001" y="936.75" width="289.86" height="100" as="geometry" />
        </mxCell>
        <mxCell id="kG1Z84SjeEAYpl0R3kHJ-1792" value="&lt;font style=&quot;&quot;&gt;&lt;span style=&quot;font-size: 29px;&quot;&gt;고객 민원 목록&lt;/span&gt;&lt;br&gt;&lt;font style=&quot;font-size: 28px;&quot;&gt;notice/compainList.jsp&lt;/font&gt;&lt;br&gt;&lt;/font&gt;" style="rounded=1;whiteSpace=wrap;html=1;shadow=0;labelBackgroundColor=none;strokeWidth=3;fontFamily=Helvetica;fontSize=30;align=center;spacing=5;fontStyle=0;arcSize=7;perimeterSpacing=2;aspect=fixed;" parent="1" vertex="1">
          <mxGeometry x="-844.8600000000001" y="546.25" width="289.86" height="100" as="geometry" />
        </mxCell>
        <mxCell id="kG1Z84SjeEAYpl0R3kHJ-1793" value="&lt;font style=&quot;&quot;&gt;&lt;span style=&quot;font-size: 29px;&quot;&gt;고객 민원 글 삭제&lt;/span&gt;&lt;br&gt;&lt;font style=&quot;font-size: 27px;&quot;&gt;notice/compainDel.jsp&lt;/font&gt;&lt;br&gt;&lt;/font&gt;" style="rounded=1;whiteSpace=wrap;html=1;shadow=0;labelBackgroundColor=none;strokeWidth=3;fontFamily=Helvetica;fontSize=30;align=center;spacing=5;fontStyle=0;arcSize=7;perimeterSpacing=2;aspect=fixed;" parent="1" vertex="1">
          <mxGeometry x="-844.8600000000001" y="1066.25" width="289.86" height="100" as="geometry" />
        </mxCell>
        <mxCell id="kG1Z84SjeEAYpl0R3kHJ-1794" value="&lt;font style=&quot;&quot;&gt;&lt;span style=&quot;font-size: 29px;&quot;&gt;고객 민원 글쓰기&lt;/span&gt;&lt;br&gt;&lt;font style=&quot;font-size: 27px;&quot;&gt;notice/compainAdd.jsp&lt;/font&gt;&lt;br&gt;&lt;/font&gt;" style="rounded=1;whiteSpace=wrap;html=1;shadow=0;labelBackgroundColor=none;strokeWidth=3;fontFamily=Helvetica;fontSize=30;align=center;spacing=5;fontStyle=0;arcSize=7;perimeterSpacing=2;aspect=fixed;" parent="1" vertex="1">
          <mxGeometry x="-844.8600000000001" y="806.75" width="289.86" height="100" as="geometry" />
        </mxCell>
        <mxCell id="kG1Z84SjeEAYpl0R3kHJ-1819" style="edgeStyle=orthogonalEdgeStyle;rounded=0;orthogonalLoop=1;jettySize=auto;html=1;exitX=0.5;exitY=1;exitDx=0;exitDy=0;endArrow=none;endFill=0;" parent="1" source="kG1Z84SjeEAYpl0R3kHJ-1795" target="kG1Z84SjeEAYpl0R3kHJ-1802" edge="1">
          <mxGeometry relative="1" as="geometry" />
        </mxCell>
        <mxCell id="kG1Z84SjeEAYpl0R3kHJ-1870" style="edgeStyle=orthogonalEdgeStyle;rounded=0;orthogonalLoop=1;jettySize=auto;html=1;exitX=1;exitY=0.5;exitDx=0;exitDy=0;entryX=0;entryY=0.5;entryDx=0;entryDy=0;endArrow=none;endFill=0;" parent="1" source="kG1Z84SjeEAYpl0R3kHJ-1795" target="kG1Z84SjeEAYpl0R3kHJ-1813" edge="1">
          <mxGeometry relative="1" as="geometry" />
        </mxCell>
        <mxCell id="kG1Z84SjeEAYpl0R3kHJ-1795" value="회원&lt;br&gt;member.jsp" style="rounded=1;whiteSpace=wrap;html=1;shadow=0;labelBackgroundColor=none;strokeWidth=3;fontFamily=Helvetica;fontSize=30;align=center;spacing=5;fontStyle=1;arcSize=7;perimeterSpacing=2;aspect=fixed;fillColor=#cce5ff;strokeColor=#36393d;flipH=0;flipV=1;" parent="1" vertex="1">
          <mxGeometry x="-440" y="260" width="290" height="100" as="geometry" />
        </mxCell>
        <mxCell id="kG1Z84SjeEAYpl0R3kHJ-1798" value="&lt;font style=&quot;&quot;&gt;회원정보수정&lt;br style=&quot;border-color: var(--border-color);&quot;&gt;&lt;font style=&quot;font-size: 23px;&quot;&gt;member/mypageUpdate.jsp&lt;/font&gt;&lt;br&gt;&lt;/font&gt;" style="rounded=1;whiteSpace=wrap;html=1;shadow=0;labelBackgroundColor=none;strokeWidth=3;fontFamily=Helvetica;fontSize=30;align=center;spacing=5;fontStyle=0;arcSize=7;perimeterSpacing=2;aspect=fixed;flipV=1;flipH=0;" parent="1" vertex="1">
          <mxGeometry x="-439.93" y="934.5" width="289.86" height="100" as="geometry" />
        </mxCell>
        <mxCell id="kG1Z84SjeEAYpl0R3kHJ-1799" value="&lt;font style=&quot;&quot;&gt;&lt;span style=&quot;font-size: 29px;&quot;&gt;회원가입&lt;/span&gt;&lt;br&gt;member/sginup.jsp&lt;br&gt;&lt;/font&gt;" style="rounded=1;whiteSpace=wrap;html=1;shadow=0;labelBackgroundColor=none;strokeWidth=3;fontFamily=Helvetica;fontSize=30;align=center;spacing=5;fontStyle=0;arcSize=7;perimeterSpacing=2;aspect=fixed;flipH=0;flipV=1;" parent="1" vertex="1">
          <mxGeometry x="-439.93" y="670" width="289.86" height="100" as="geometry" />
        </mxCell>
        <mxCell id="kG1Z84SjeEAYpl0R3kHJ-1800" value="&lt;font style=&quot;&quot;&gt;&lt;span style=&quot;font-size: 29px;&quot;&gt;로그아웃&lt;/span&gt;&lt;br&gt;&lt;font style=&quot;font-size: 27px;&quot;&gt;member/logout.jsp&lt;/font&gt;&lt;br&gt;&lt;/font&gt;" style="rounded=1;whiteSpace=wrap;html=1;shadow=0;labelBackgroundColor=none;strokeWidth=3;fontFamily=Helvetica;fontSize=30;align=center;spacing=5;fontStyle=0;arcSize=7;perimeterSpacing=2;aspect=fixed;flipV=1;flipH=0;" parent="1" vertex="1">
          <mxGeometry x="-439.93" y="1064" width="289.86" height="100" as="geometry" />
        </mxCell>
        <mxCell id="kG1Z84SjeEAYpl0R3kHJ-1801" value="&lt;font style=&quot;&quot;&gt;&lt;span style=&quot;font-size: 29px;&quot;&gt;회원정보&lt;/span&gt;&lt;br&gt;member/mypage.jsp&lt;br&gt;&lt;/font&gt;" style="rounded=1;whiteSpace=wrap;html=1;shadow=0;labelBackgroundColor=none;strokeWidth=3;fontFamily=Helvetica;fontSize=30;align=center;spacing=5;fontStyle=0;arcSize=7;perimeterSpacing=2;aspect=fixed;flipV=1;flipH=0;" parent="1" vertex="1">
          <mxGeometry x="-439.93" y="804.5" width="289.86" height="100" as="geometry" />
        </mxCell>
        <mxCell id="kG1Z84SjeEAYpl0R3kHJ-1802" value="&lt;font style=&quot;&quot;&gt;&lt;span style=&quot;font-size: 29px;&quot;&gt;회원 탈퇴&lt;/span&gt;&lt;br&gt;&lt;font style=&quot;font-size: 27px;&quot;&gt;member/del.jsp&lt;/font&gt;&lt;br&gt;&lt;/font&gt;" style="rounded=1;whiteSpace=wrap;html=1;shadow=0;labelBackgroundColor=none;strokeWidth=3;fontFamily=Helvetica;fontSize=30;align=center;spacing=5;fontStyle=0;arcSize=7;perimeterSpacing=2;aspect=fixed;flipV=1;flipH=0;" parent="1" vertex="1">
          <mxGeometry x="-439.93" y="1200" width="289.86" height="100" as="geometry" />
        </mxCell>
        <mxCell id="kG1Z84SjeEAYpl0R3kHJ-1803" value="&lt;font style=&quot;&quot;&gt;&lt;span style=&quot;font-size: 29px;&quot;&gt;고객 민원 답변 수정&lt;/span&gt;&lt;br&gt;&lt;font style=&quot;font-size: 24px;&quot;&gt;notice/replyUpdate.jsp&lt;/font&gt;&lt;br&gt;&lt;/font&gt;" style="rounded=1;whiteSpace=wrap;html=1;shadow=0;labelBackgroundColor=none;strokeWidth=3;fontFamily=Helvetica;fontSize=30;align=center;spacing=5;fontStyle=0;arcSize=7;perimeterSpacing=2;aspect=fixed;" parent="1" vertex="1">
          <mxGeometry x="-844.8600000000001" y="1330" width="289.86" height="100" as="geometry" />
        </mxCell>
        <mxCell id="kG1Z84SjeEAYpl0R3kHJ-1804" value="&lt;font style=&quot;&quot;&gt;&lt;span style=&quot;font-size: 29px;&quot;&gt;고객 민원 답변 삭제&lt;/span&gt;&lt;br&gt;&lt;font style=&quot;font-size: 27px;&quot;&gt;notice/replyDel.jsp&lt;/font&gt;&lt;br&gt;&lt;/font&gt;" style="rounded=1;whiteSpace=wrap;html=1;shadow=0;labelBackgroundColor=none;strokeWidth=3;fontFamily=Helvetica;fontSize=30;align=center;spacing=5;fontStyle=0;arcSize=7;perimeterSpacing=2;aspect=fixed;" parent="1" vertex="1">
          <mxGeometry x="-844.8600000000001" y="1459.5" width="289.86" height="100" as="geometry" />
        </mxCell>
        <mxCell id="kG1Z84SjeEAYpl0R3kHJ-1805" value="&lt;font style=&quot;&quot;&gt;&lt;span style=&quot;font-size: 29px;&quot;&gt;고객 민원 답변하기&lt;/span&gt;&lt;br&gt;&lt;font style=&quot;font-size: 27px;&quot;&gt;notice/replyAdd.jsp&lt;/font&gt;&lt;br&gt;&lt;/font&gt;" style="rounded=1;whiteSpace=wrap;html=1;shadow=0;labelBackgroundColor=none;strokeWidth=3;fontFamily=Helvetica;fontSize=30;align=center;spacing=5;fontStyle=0;arcSize=7;perimeterSpacing=2;aspect=fixed;" parent="1" vertex="1">
          <mxGeometry x="-844.8600000000001" y="1200" width="289.86" height="100" as="geometry" />
        </mxCell>
        <mxCell id="kG1Z84SjeEAYpl0R3kHJ-1831" style="edgeStyle=orthogonalEdgeStyle;rounded=0;orthogonalLoop=1;jettySize=auto;html=1;exitX=0.5;exitY=1;exitDx=0;exitDy=0;endArrow=none;endFill=0;" parent="1" source="kG1Z84SjeEAYpl0R3kHJ-1813" target="kG1Z84SjeEAYpl0R3kHJ-1822" edge="1">
          <mxGeometry relative="1" as="geometry" />
        </mxCell>
        <mxCell id="kG1Z84SjeEAYpl0R3kHJ-1871" style="edgeStyle=orthogonalEdgeStyle;rounded=0;orthogonalLoop=1;jettySize=auto;html=1;exitX=1;exitY=0.5;exitDx=0;exitDy=0;entryX=0;entryY=0.5;entryDx=0;entryDy=0;endArrow=none;endFill=0;" parent="1" source="kG1Z84SjeEAYpl0R3kHJ-1813" target="kG1Z84SjeEAYpl0R3kHJ-1814" edge="1">
          <mxGeometry relative="1" as="geometry" />
        </mxCell>
        <mxCell id="kG1Z84SjeEAYpl0R3kHJ-1813" value="축제행사&lt;br&gt;event.jsp" style="rounded=1;whiteSpace=wrap;html=1;shadow=0;labelBackgroundColor=none;strokeWidth=3;fontFamily=Helvetica;fontSize=30;align=center;spacing=5;fontStyle=1;arcSize=7;perimeterSpacing=2;aspect=fixed;fillColor=#cce5ff;strokeColor=#36393d;" parent="1" vertex="1">
          <mxGeometry y="260" width="290" height="100" as="geometry" />
        </mxCell>
        <mxCell id="kG1Z84SjeEAYpl0R3kHJ-1840" style="edgeStyle=orthogonalEdgeStyle;rounded=0;orthogonalLoop=1;jettySize=auto;html=1;exitX=0.5;exitY=1;exitDx=0;exitDy=0;endArrow=none;endFill=0;" parent="1" source="kG1Z84SjeEAYpl0R3kHJ-1814" edge="1">
          <mxGeometry relative="1" as="geometry">
            <mxPoint x="540" y="409.99999999999955" as="targetPoint" />
            <Array as="points">
              <mxPoint x="541" y="362" />
            </Array>
          </mxGeometry>
        </mxCell>
        <mxCell id="kG1Z84SjeEAYpl0R3kHJ-1841" style="edgeStyle=orthogonalEdgeStyle;rounded=0;orthogonalLoop=1;jettySize=auto;html=1;exitX=0.5;exitY=1;exitDx=0;exitDy=0;entryX=0.5;entryY=0;entryDx=0;entryDy=0;endArrow=none;endFill=0;" parent="1" source="kG1Z84SjeEAYpl0R3kHJ-1814" target="kG1Z84SjeEAYpl0R3kHJ-1825" edge="1">
          <mxGeometry relative="1" as="geometry">
            <Array as="points">
              <mxPoint x="1210" y="362" />
              <mxPoint x="1210" y="412" />
            </Array>
          </mxGeometry>
        </mxCell>
        <mxCell id="kG1Z84SjeEAYpl0R3kHJ-1849" style="edgeStyle=orthogonalEdgeStyle;rounded=0;orthogonalLoop=1;jettySize=auto;html=1;exitX=0.5;exitY=1;exitDx=0;exitDy=0;entryX=0.5;entryY=0;entryDx=0;entryDy=0;endArrow=none;endFill=0;" parent="1" source="kG1Z84SjeEAYpl0R3kHJ-1814" target="kG1Z84SjeEAYpl0R3kHJ-1846" edge="1">
          <mxGeometry relative="1" as="geometry">
            <Array as="points">
              <mxPoint x="885" y="362" />
            </Array>
          </mxGeometry>
        </mxCell>
        <mxCell id="kG1Z84SjeEAYpl0R3kHJ-1872" style="edgeStyle=orthogonalEdgeStyle;rounded=0;orthogonalLoop=1;jettySize=auto;html=1;exitX=1;exitY=0.5;exitDx=0;exitDy=0;entryX=0;entryY=0.5;entryDx=0;entryDy=0;endArrow=none;endFill=0;" parent="1" source="kG1Z84SjeEAYpl0R3kHJ-1814" target="kG1Z84SjeEAYpl0R3kHJ-1815" edge="1">
          <mxGeometry relative="1" as="geometry" />
        </mxCell>
        <mxCell id="kG1Z84SjeEAYpl0R3kHJ-1814" value="함안여행&lt;br&gt;tour.jsp" style="rounded=1;whiteSpace=wrap;html=1;shadow=0;labelBackgroundColor=none;strokeWidth=3;fontFamily=Helvetica;fontSize=30;align=center;spacing=5;fontStyle=1;arcSize=7;perimeterSpacing=2;aspect=fixed;fillColor=#cce5ff;strokeColor=#36393d;" parent="1" vertex="1">
          <mxGeometry x="750" y="260" width="290" height="100" as="geometry" />
        </mxCell>
        <mxCell id="kG1Z84SjeEAYpl0R3kHJ-1866" style="edgeStyle=orthogonalEdgeStyle;rounded=0;orthogonalLoop=1;jettySize=auto;html=1;exitX=0.5;exitY=1;exitDx=0;exitDy=0;entryX=0.536;entryY=0.675;entryDx=0;entryDy=0;entryPerimeter=0;endArrow=none;endFill=0;" parent="1" source="kG1Z84SjeEAYpl0R3kHJ-1815" target="kG1Z84SjeEAYpl0R3kHJ-1864" edge="1">
          <mxGeometry relative="1" as="geometry" />
        </mxCell>
        <mxCell id="kG1Z84SjeEAYpl0R3kHJ-1815" value="관광안내&lt;br&gt;tourinfo.jsp" style="rounded=1;whiteSpace=wrap;html=1;shadow=0;labelBackgroundColor=none;strokeWidth=3;fontFamily=Helvetica;fontSize=30;align=center;spacing=5;fontStyle=1;arcSize=7;perimeterSpacing=2;aspect=fixed;fillColor=#cce5ff;strokeColor=#36393d;" parent="1" vertex="1">
          <mxGeometry x="1780" y="260" width="290" height="100" as="geometry" />
        </mxCell>
        <mxCell id="kG1Z84SjeEAYpl0R3kHJ-1817" value="로그인&lt;br&gt;member/login.jsp" style="rounded=1;whiteSpace=wrap;html=1;shadow=0;labelBackgroundColor=none;strokeWidth=3;fontFamily=Helvetica;fontSize=30;align=center;spacing=5;fontStyle=0;arcSize=7;perimeterSpacing=2;aspect=fixed;flipV=1;flipH=0;" parent="1" vertex="1">
          <mxGeometry x="-439.93" y="416.25" width="289.86" height="100" as="geometry" />
        </mxCell>
        <mxCell id="kG1Z84SjeEAYpl0R3kHJ-1818" value="&lt;font style=&quot;&quot;&gt;&lt;span style=&quot;font-size: 27px;&quot;&gt;회원가입 이용약관&lt;/span&gt;&lt;br&gt;member/agree.jsp&lt;br&gt;&lt;/font&gt;" style="rounded=1;whiteSpace=wrap;html=1;shadow=0;labelBackgroundColor=none;strokeWidth=3;fontFamily=Helvetica;fontSize=30;align=center;spacing=5;fontStyle=0;arcSize=7;perimeterSpacing=2;aspect=fixed;flipV=1;flipH=0;" parent="1" vertex="1">
          <mxGeometry x="-439.93" y="546.25" width="289.86" height="100" as="geometry" />
        </mxCell>
        <mxCell id="kG1Z84SjeEAYpl0R3kHJ-1820" value="함안수박축제 상세&lt;br&gt;&lt;font style=&quot;font-size: 29px;&quot;&gt;event/watermelon.jsp&lt;/font&gt;" style="rounded=1;whiteSpace=wrap;html=1;shadow=0;labelBackgroundColor=none;strokeWidth=3;fontFamily=Helvetica;fontSize=30;align=center;spacing=5;fontStyle=0;arcSize=7;perimeterSpacing=2;aspect=fixed;flipV=1;flipH=0;" parent="1" vertex="1">
          <mxGeometry y="414" width="289.86" height="100" as="geometry" />
        </mxCell>
        <mxCell id="kG1Z84SjeEAYpl0R3kHJ-1821" value="함안낙화놀이 상세&lt;br&gt;event/fireworks.jsp" style="rounded=1;whiteSpace=wrap;html=1;shadow=0;labelBackgroundColor=none;strokeWidth=3;fontFamily=Helvetica;fontSize=30;align=center;spacing=5;fontStyle=0;arcSize=7;perimeterSpacing=2;aspect=fixed;flipV=1;flipH=0;" parent="1" vertex="1">
          <mxGeometry y="550" width="289.86" height="100" as="geometry" />
        </mxCell>
        <mxCell id="kG1Z84SjeEAYpl0R3kHJ-1822" value="해바라기축제 상세&lt;br&gt;event/sunflower.jsp" style="rounded=1;whiteSpace=wrap;html=1;shadow=0;labelBackgroundColor=none;strokeWidth=3;fontFamily=Helvetica;fontSize=30;align=center;spacing=5;fontStyle=0;arcSize=7;perimeterSpacing=2;aspect=fixed;flipV=1;flipH=0;" parent="1" vertex="1">
          <mxGeometry y="690" width="289.86" height="100" as="geometry" />
        </mxCell>
        <mxCell id="kG1Z84SjeEAYpl0R3kHJ-1842" style="edgeStyle=orthogonalEdgeStyle;rounded=0;orthogonalLoop=1;jettySize=auto;html=1;exitX=0.5;exitY=1;exitDx=0;exitDy=0;entryX=0.5;entryY=0;entryDx=0;entryDy=0;endArrow=none;endFill=0;" parent="1" source="kG1Z84SjeEAYpl0R3kHJ-1823" target="kG1Z84SjeEAYpl0R3kHJ-1830" edge="1">
          <mxGeometry relative="1" as="geometry" />
        </mxCell>
        <mxCell id="kG1Z84SjeEAYpl0R3kHJ-1823" value="생태관광&lt;br&gt;tour/eco.jsp" style="rounded=1;whiteSpace=wrap;html=1;shadow=0;labelBackgroundColor=none;strokeWidth=3;fontFamily=Helvetica;fontSize=30;align=center;spacing=5;fontStyle=0;arcSize=7;perimeterSpacing=2;aspect=fixed;flipV=1;flipH=0;" parent="1" vertex="1">
          <mxGeometry x="400" y="414" width="289.86" height="100" as="geometry" />
        </mxCell>
        <mxCell id="kG1Z84SjeEAYpl0R3kHJ-1824" value="역사여행&lt;br&gt;tour/history.jsp" style="rounded=1;whiteSpace=wrap;html=1;shadow=0;labelBackgroundColor=none;strokeWidth=3;fontFamily=Helvetica;fontSize=30;align=center;spacing=5;fontStyle=0;arcSize=7;perimeterSpacing=2;aspect=fixed;flipV=1;flipH=0;" parent="1" vertex="1">
          <mxGeometry x="740" y="414" width="289.86" height="100" as="geometry" />
        </mxCell>
        <mxCell id="kG1Z84SjeEAYpl0R3kHJ-1825" value="문화재 상세&lt;br&gt;tour/cultural.jsp" style="rounded=1;whiteSpace=wrap;html=1;shadow=0;labelBackgroundColor=none;strokeWidth=3;fontFamily=Helvetica;fontSize=30;align=center;spacing=5;fontStyle=0;arcSize=7;perimeterSpacing=2;aspect=fixed;flipV=1;flipH=0;" parent="1" vertex="1">
          <mxGeometry x="1070" y="414" width="289.86" height="100" as="geometry" />
        </mxCell>
        <mxCell id="kG1Z84SjeEAYpl0R3kHJ-1826" value="함안악양둑방 상세&lt;br&gt;tour/eco1.jsp" style="rounded=1;whiteSpace=wrap;html=1;shadow=0;labelBackgroundColor=none;strokeWidth=3;fontFamily=Helvetica;fontSize=30;align=center;spacing=5;fontStyle=0;arcSize=7;perimeterSpacing=2;aspect=fixed;flipV=1;flipH=0;" parent="1" vertex="1">
          <mxGeometry x="400" y="546.25" width="289.86" height="100" as="geometry" />
        </mxCell>
        <mxCell id="kG1Z84SjeEAYpl0R3kHJ-1827" value="입곡문화공원 상세&lt;br&gt;tour/eco2.jsp" style="rounded=1;whiteSpace=wrap;html=1;shadow=0;labelBackgroundColor=none;strokeWidth=3;fontFamily=Helvetica;fontSize=30;align=center;spacing=5;fontStyle=0;arcSize=7;perimeterSpacing=2;aspect=fixed;flipV=1;flipH=0;" parent="1" vertex="1">
          <mxGeometry x="400" y="676.25" width="289.86" height="100" as="geometry" />
        </mxCell>
        <mxCell id="kG1Z84SjeEAYpl0R3kHJ-1828" value="입곡군립공원 상세&lt;br&gt;tour/eco3.jsp" style="rounded=1;whiteSpace=wrap;html=1;shadow=0;labelBackgroundColor=none;strokeWidth=3;fontFamily=Helvetica;fontSize=30;align=center;spacing=5;fontStyle=0;arcSize=7;perimeterSpacing=2;aspect=fixed;flipV=1;flipH=0;" parent="1" vertex="1">
          <mxGeometry x="400" y="806.75" width="289.86" height="100" as="geometry" />
        </mxCell>
        <mxCell id="kG1Z84SjeEAYpl0R3kHJ-1829" value="연꽃테마파크 상세&lt;br&gt;tour/eco4.jsp" style="rounded=1;whiteSpace=wrap;html=1;shadow=0;labelBackgroundColor=none;strokeWidth=3;fontFamily=Helvetica;fontSize=30;align=center;spacing=5;fontStyle=0;arcSize=7;perimeterSpacing=2;aspect=fixed;flipV=1;flipH=0;" parent="1" vertex="1">
          <mxGeometry x="400" y="936.75" width="289.86" height="100" as="geometry" />
        </mxCell>
        <mxCell id="kG1Z84SjeEAYpl0R3kHJ-1830" value="악양생태공원 상세&lt;br&gt;tour/eco5.jsp" style="rounded=1;whiteSpace=wrap;html=1;shadow=0;labelBackgroundColor=none;strokeWidth=3;fontFamily=Helvetica;fontSize=30;align=center;spacing=5;fontStyle=0;arcSize=7;perimeterSpacing=2;aspect=fixed;flipV=1;flipH=0;" parent="1" vertex="1">
          <mxGeometry x="400" y="1066.25" width="289.86" height="100" as="geometry" />
        </mxCell>
        <mxCell id="kG1Z84SjeEAYpl0R3kHJ-1843" value="함안 광심정 상세&lt;br&gt;tour/history1.jsp" style="rounded=1;whiteSpace=wrap;html=1;shadow=0;labelBackgroundColor=none;strokeWidth=3;fontFamily=Helvetica;fontSize=30;align=center;spacing=5;fontStyle=0;arcSize=7;perimeterSpacing=2;aspect=fixed;flipV=1;flipH=0;" parent="1" vertex="1">
          <mxGeometry x="739.86" y="550" width="289.86" height="100" as="geometry" />
        </mxCell>
        <mxCell id="kG1Z84SjeEAYpl0R3kHJ-1844" value="함안악양루 상세&lt;br&gt;tour/history2.jsp" style="rounded=1;whiteSpace=wrap;html=1;shadow=0;labelBackgroundColor=none;strokeWidth=3;fontFamily=Helvetica;fontSize=30;align=center;spacing=5;fontStyle=0;arcSize=7;perimeterSpacing=2;aspect=fixed;flipV=1;flipH=0;" parent="1" vertex="1">
          <mxGeometry x="739.86" y="680" width="289.86" height="100" as="geometry" />
        </mxCell>
        <mxCell id="kG1Z84SjeEAYpl0R3kHJ-1845" value="원효암 칠성각 상세&lt;br&gt;tour/history3.jsp" style="rounded=1;whiteSpace=wrap;html=1;shadow=0;labelBackgroundColor=none;strokeWidth=3;fontFamily=Helvetica;fontSize=30;align=center;spacing=5;fontStyle=0;arcSize=7;perimeterSpacing=2;aspect=fixed;flipV=1;flipH=0;" parent="1" vertex="1">
          <mxGeometry x="739.86" y="810.5" width="289.86" height="100" as="geometry" />
        </mxCell>
        <mxCell id="kG1Z84SjeEAYpl0R3kHJ-1846" value="장춘사 대웅전 상세&lt;br&gt;tour/history4.jsp" style="rounded=1;whiteSpace=wrap;html=1;shadow=0;labelBackgroundColor=none;strokeWidth=3;fontFamily=Helvetica;fontSize=30;align=center;spacing=5;fontStyle=0;arcSize=7;perimeterSpacing=2;aspect=fixed;flipV=1;flipH=0;" parent="1" vertex="1">
          <mxGeometry x="739.86" y="940.5" width="289.86" height="100" as="geometry" />
        </mxCell>
        <mxCell id="kG1Z84SjeEAYpl0R3kHJ-1850" style="edgeStyle=orthogonalEdgeStyle;rounded=0;orthogonalLoop=1;jettySize=auto;html=1;exitX=0.5;exitY=1;exitDx=0;exitDy=0;endArrow=none;endFill=0;" parent="1" edge="1">
          <mxGeometry relative="1" as="geometry">
            <mxPoint x="1570" y="407.74999999999955" as="targetPoint" />
            <mxPoint x="1915" y="359.75" as="sourcePoint" />
            <Array as="points">
              <mxPoint x="1571" y="359.75" />
            </Array>
          </mxGeometry>
        </mxCell>
        <mxCell id="kG1Z84SjeEAYpl0R3kHJ-1851" style="edgeStyle=orthogonalEdgeStyle;rounded=0;orthogonalLoop=1;jettySize=auto;html=1;exitX=0.5;exitY=1;exitDx=0;exitDy=0;entryX=0.5;entryY=0;entryDx=0;entryDy=0;endArrow=none;endFill=0;" parent="1" target="kG1Z84SjeEAYpl0R3kHJ-1856" edge="1">
          <mxGeometry relative="1" as="geometry">
            <mxPoint x="1915" y="359.75" as="sourcePoint" />
            <Array as="points">
              <mxPoint x="2240" y="359.75" />
              <mxPoint x="2240" y="409.75" />
            </Array>
          </mxGeometry>
        </mxCell>
        <mxCell id="kG1Z84SjeEAYpl0R3kHJ-1853" style="edgeStyle=orthogonalEdgeStyle;rounded=0;orthogonalLoop=1;jettySize=auto;html=1;exitX=0.5;exitY=1;exitDx=0;exitDy=0;entryX=0.5;entryY=0;entryDx=0;entryDy=0;endArrow=none;endFill=0;" parent="1" source="kG1Z84SjeEAYpl0R3kHJ-1854" target="kG1Z84SjeEAYpl0R3kHJ-1859" edge="1">
          <mxGeometry relative="1" as="geometry">
            <mxPoint x="1574.9299999999994" y="1062.0000000000005" as="targetPoint" />
          </mxGeometry>
        </mxCell>
        <mxCell id="kG1Z84SjeEAYpl0R3kHJ-1854" value="관광지도&lt;br&gt;tourinfo/map.jsp" style="rounded=1;whiteSpace=wrap;html=1;shadow=0;labelBackgroundColor=none;strokeWidth=3;fontFamily=Helvetica;fontSize=30;align=center;spacing=5;fontStyle=0;arcSize=7;perimeterSpacing=2;aspect=fixed;flipV=1;flipH=0;" parent="1" vertex="1">
          <mxGeometry x="1430" y="411.75" width="289.86" height="100" as="geometry" />
        </mxCell>
        <mxCell id="kG1Z84SjeEAYpl0R3kHJ-1855" value="교통안내&lt;br&gt;tourinfo/traffic.jsp" style="rounded=1;whiteSpace=wrap;html=1;shadow=0;labelBackgroundColor=none;strokeWidth=3;fontFamily=Helvetica;fontSize=30;align=center;spacing=5;fontStyle=0;arcSize=7;perimeterSpacing=2;aspect=fixed;flipV=1;flipH=0;" parent="1" vertex="1">
          <mxGeometry x="1770" y="411.75" width="289.86" height="100" as="geometry" />
        </mxCell>
        <mxCell id="kG1Z84SjeEAYpl0R3kHJ-1856" value="여행갤러리 상세&lt;br&gt;tourinfo/photo.jsp" style="rounded=1;whiteSpace=wrap;html=1;shadow=0;labelBackgroundColor=none;strokeWidth=3;fontFamily=Helvetica;fontSize=30;align=center;spacing=5;fontStyle=0;arcSize=7;perimeterSpacing=2;aspect=fixed;flipV=1;flipH=0;" parent="1" vertex="1">
          <mxGeometry x="2100" y="411.75" width="289.86" height="100" as="geometry" />
        </mxCell>
        <mxCell id="kG1Z84SjeEAYpl0R3kHJ-1857" value="전통시장 상세&lt;br&gt;tourinfo/market.jsp" style="rounded=1;whiteSpace=wrap;html=1;shadow=0;labelBackgroundColor=none;strokeWidth=3;fontFamily=Helvetica;fontSize=30;align=center;spacing=5;fontStyle=0;arcSize=7;perimeterSpacing=2;aspect=fixed;flipV=1;flipH=0;" parent="1" vertex="1">
          <mxGeometry x="1430" y="544" width="289.86" height="100" as="geometry" />
        </mxCell>
        <mxCell id="kG1Z84SjeEAYpl0R3kHJ-1858" value="음식점 상세&lt;br&gt;tourinfo/food.jsp" style="rounded=1;whiteSpace=wrap;html=1;shadow=0;labelBackgroundColor=none;strokeWidth=3;fontFamily=Helvetica;fontSize=30;align=center;spacing=5;fontStyle=0;arcSize=7;perimeterSpacing=2;aspect=fixed;flipV=1;flipH=0;" parent="1" vertex="1">
          <mxGeometry x="1430" y="674" width="289.86" height="100" as="geometry" />
        </mxCell>
        <mxCell id="kG1Z84SjeEAYpl0R3kHJ-1859" value="숙박시설 상세&lt;br&gt;tourinfo/accom.jsp" style="rounded=1;whiteSpace=wrap;html=1;shadow=0;labelBackgroundColor=none;strokeWidth=3;fontFamily=Helvetica;fontSize=30;align=center;spacing=5;fontStyle=0;arcSize=7;perimeterSpacing=2;aspect=fixed;flipV=1;flipH=0;" parent="1" vertex="1">
          <mxGeometry x="1430" y="804.5" width="289.86" height="100" as="geometry" />
        </mxCell>
        <mxCell id="kG1Z84SjeEAYpl0R3kHJ-1862" value="시내/시외버스 상세&lt;br&gt;tourinfo/traffic1.jsp" style="rounded=1;whiteSpace=wrap;html=1;shadow=0;labelBackgroundColor=none;strokeWidth=3;fontFamily=Helvetica;fontSize=30;align=center;spacing=5;fontStyle=0;arcSize=7;perimeterSpacing=2;aspect=fixed;flipV=1;flipH=0;" parent="1" vertex="1">
          <mxGeometry x="1769.8600000000001" y="547.75" width="289.86" height="100" as="geometry" />
        </mxCell>
        <mxCell id="kG1Z84SjeEAYpl0R3kHJ-1863" value="공영버스&lt;br style=&quot;font-size: 28px;&quot;&gt;/농어촌버스 상세&lt;br style=&quot;font-size: 28px;&quot;&gt;tourinfo/traffic2.jsp" style="rounded=1;whiteSpace=wrap;html=1;shadow=0;labelBackgroundColor=none;strokeWidth=3;fontFamily=Helvetica;fontSize=28;align=center;spacing=5;fontStyle=0;arcSize=7;perimeterSpacing=2;aspect=fixed;flipV=1;flipH=0;" parent="1" vertex="1">
          <mxGeometry x="1769.8600000000001" y="677.75" width="289.86" height="100" as="geometry" />
        </mxCell>
        <mxCell id="kG1Z84SjeEAYpl0R3kHJ-1864" value="기차/택시 상세&lt;br&gt;tourinfo/traffic3.jsp" style="rounded=1;whiteSpace=wrap;html=1;shadow=0;labelBackgroundColor=none;strokeWidth=3;fontFamily=Helvetica;fontSize=30;align=center;spacing=5;fontStyle=0;arcSize=7;perimeterSpacing=2;aspect=fixed;flipV=1;flipH=0;" parent="1" vertex="1">
          <mxGeometry x="1769.8600000000001" y="808.25" width="289.86" height="100" as="geometry" />
        </mxCell>
        <mxCell id="f2LvoWJu1zbYljVPSlJx-1778" value="" style="rounded=0;whiteSpace=wrap;html=1;fillColor=none;strokeWidth=3;" vertex="1" parent="1">
          <mxGeometry x="-1280" y="-110" width="3740" height="1760" as="geometry" />
        </mxCell>
      </root>
    </mxGraphModel>
  </diagram>
</mxfile>
